<svg xmlns="http://www.w3.org/2000/svg" width="60" height="56" viewBox="0 0 60 56"><g><g><path fill="#518a32" d="M60 13.03v36.59a4.083 4.083 0 0 1-4.082 4.085H29.23l3.178-.827a5.49 5.49 0 0 0 3.373-2.55 5.498 5.498 0 0 0 .582-4.19l-7.12-27.387a5.523 5.523 0 0 0-6.734-3.957l-3.633.945a4.25 4.25 0 0 0-2.873-.51 4.576 4.576 0 0 0-5.012-1.886 4.545 4.545 0 0 0-2.794 2.113 4.538 4.538 0 0 0-.617 1.966 4.23 4.23 0 0 0-2.196 1.751v-6.032c0-1.21.56-2.815 1.246-3.675l6.559-8.235A3.265 3.265 0 0 1 15.742 0h33.9c.994 0 1.934.453 2.553 1.23l6.56 8.236c.684.86 1.245 2.464 1.245 3.564zm-3.39-3.634L54.44 6.669H38.717l-.816-2.406h14.621L50.92 2.249a1.624 1.624 0 0 0-1.277-.615h-33.9c-.5 0-.965.224-1.277.615l-1.603 2.014h14.365l-1.462 2.406h-14.82L8.773 9.396zM10.093 18.34l-.008-.03a2.129 2.129 0 0 1 1.523-2.595l.047-.013a2.127 2.127 0 0 1 2.594 1.524l.008.03a.916.916 0 0 0 1.117.656l.916-.238a1.826 1.826 0 0 1 2.227 1.308l.009.036a1.827 1.827 0 0 1-1.307 2.228l-7.77 2.023a1.826 1.826 0 0 1-2.226-1.309l-.01-.035a1.827 1.827 0 0 1 1.308-2.228l.916-.239a.917.917 0 0 0 .656-1.118zm1.188-.315a.922.922 0 1 0 1.785-.464.922.922 0 0 0-1.785.464zm12.11 27.04a.615.615 0 0 1-.44.75l-11.303 2.943a.615.615 0 0 1-.75-.44l-.154-.596a.615.615 0 0 1 .44-.75l11.303-2.943a.615.615 0 0 1 .75.44zm1.379-11.8l.155.595a.615.615 0 0 1-.44.75L9.016 38.637a.615.615 0 0 1-.75-.44l-.154-.596a.615.615 0 0 1 .44-.75l15.467-4.027a.615.615 0 0 1 .75.44zm-1.678-4.013L7.623 33.279a.615.615 0 0 1-.75-.44l-.154-.596a.615.615 0 0 1 .44-.75l15.467-4.027a.615.615 0 0 1 .75.44l.155.596a.615.615 0 0 1-.44.75zm-.344 10.895L10.254 43.4a.615.615 0 0 1-.75-.44l-.154-.596a.615.615 0 0 1 .44-.75l12.493-3.253a.615.615 0 0 1 .75.44l.154.596a.615.615 0 0 1-.44.75zm9.044 10.359l-20.821 5.42a3.073 3.073 0 0 1-3.749-2.202L.102 26.338a3.076 3.076 0 0 1 2.201-3.752l3.631-.945c.016.285.07.574.168.862.525 1.528 2.207 2.334 3.77 1.927l7.655-1.993c1.63-.425 2.612-2.097 2.178-3.765a3.068 3.068 0 0 0-.208-.562l3.628-.944a3.073 3.073 0 0 1 3.748 2.202l7.12 27.387a3.076 3.076 0 0 1-2.202 3.75zm-.773-2.977l-6.19-23.814-20.823 5.42 6.19 23.815z"/></g></g></svg>