<svg xmlns="http://www.w3.org/2000/svg" width="59" height="60" viewBox="0 0 59 60"><g><g><path fill="#d12c2c" d="M56.602 42.112c-3.104 7.242-8.841 12.84-16.155 15.765-7.313 2.924-15.327 2.824-22.565-.282a29.7 29.7 0 0 1-5.855-3.337C7.624 51.03 4.2 46.63 2.123 41.434-.8 34.118-.7 26.1 2.403 18.86 5.51 11.618 11.247 6.019 18.56 3.095 25.8.199 33.729.27 40.912 3.287L42.532.55c.462-.78 1.088-.719 1.391.135l2.708 7.623c.304.854-.18 1.672-1.075 1.817l-7.983 1.289c-.894.145-1.249-.376-.787-1.156l1.68-2.84A24.557 24.557 0 0 0 20.32 7.5C14.183 9.954 9.367 14.652 6.762 20.73a24.6 24.6 0 0 0-.235 18.944c1.742 4.36 4.616 8.053 8.31 10.761a24.955 24.955 0 0 0 4.914 2.802c6.074 2.606 12.799 2.689 18.936.235 6.137-2.454 10.952-7.152 13.557-13.228a24.64 24.64 0 0 0 .401-18.52 2.372 2.372 0 1 1 4.435-1.679 29.362 29.362 0 0 1-.478 22.068zm-26.22-28.647v16.798l15.416 7.973a1.921 1.921 0 0 1-1.762 3.413L26.54 32.6V13.465a1.92 1.92 0 1 1 3.84 0z"/></g></g></svg>