<svg xmlns="http://www.w3.org/2000/svg" width="16" height="16" viewBox="0 0 16 16"><g><g><path fill="#633" d="M16 8c0 4.436-3.564 8-8 8s-8-3.564-8-8c0-4.437 3.564-8 8-8s8 3.563 8 8zm-6.836-.11l2.727-2.726A.393.393 0 0 0 12 4.909a.393.393 0 0 0-.11-.255l-.508-.509a.33.33 0 0 0-.255-.109.393.393 0 0 0-.254.11L8.145 6.872a.176.176 0 0 1-.254 0L5.164 4.145a.393.393 0 0 0-.255-.109.393.393 0 0 0-.255.11l-.509.508a.393.393 0 0 0-.109.255c0 .073.037.182.11.255L6.872 7.89a.176.176 0 0 1 0 .254l-2.728 2.728a.392.392 0 0 0-.109.254c0 .073.037.182.11.255l.508.509A.33.33 0 0 0 4.91 12a.393.393 0 0 0 .255-.11L7.89 9.165a.176.176 0 0 1 .254 0l2.728 2.727a.33.33 0 0 0 .254.109.393.393 0 0 0 .255-.11l.509-.508a.393.393 0 0 0 .109-.255.392.392 0 0 0-.11-.254L9.165 8.145c-.073-.072-.073-.218 0-.254z"/></g></g></svg>