<svg xmlns="http://www.w3.org/2000/svg" width="52" height="60" viewBox="0 0 52 60"><g><g><path fill="#d12c2c" d="M0 48.75v-45C0 1.68 1.665 0 3.714 0h37.143c2.05 0 3.714 1.68 3.714 3.75V7.5h3.715C50.336 7.5 52 9.18 52 11.25v45c0 2.07-1.665 3.75-3.714 3.75H11.143c-2.05 0-3.714-1.68-3.714-3.75V52.5H3.714C1.664 52.5 0 50.82 0 48.75zm40.857-45H3.714v45h37.143zm3.714 7.5v37.5c0 2.07-1.664 3.75-3.714 3.75H11.143v3.75h37.143v-45zm-27.857 0h18.572c1.023 0 1.857.84 1.857 1.875A1.869 1.869 0 0 1 35.286 15H16.714a1.867 1.867 0 0 1-1.857-1.875c0-1.035.832-1.875 1.857-1.875zM7.43 24.375c0-1.035.832-1.875 1.857-1.875h26c1.023 0 1.857.84 1.857 1.875a1.869 1.869 0 0 1-1.857 1.875h-26a1.867 1.867 0 0 1-1.857-1.875zm0 7.5C7.429 30.84 8.26 30 9.286 30h26c1.023 0 1.857.84 1.857 1.875a1.87 1.87 0 0 1-1.857 1.875h-26a1.868 1.868 0 0 1-1.857-1.875zm0 7.5c0-1.033.832-1.875 1.857-1.875h26a1.87 1.87 0 0 1 1.857 1.875 1.87 1.87 0 0 1-1.857 1.875h-26a1.869 1.869 0 0 1-1.857-1.875z"/></g></g></svg>