<svg xmlns="http://www.w3.org/2000/svg" width="46" height="60" viewBox="0 0 46 60"><g><g><path fill="#518a32" d="M46 13.75V55c0 2.757-2.294 5-5.111 5H5.11C2.294 60 0 57.757 0 55V5C0 2.242 2.294 0 5.11 0h26.833c.354 0 .674.14.905.368l12.775 12.497c.232.226.376.539.376.885zm-38.333 0c0 .69.571 1.25 1.277 1.25h15.334c.706 0 1.278-.56 1.278-1.25 0-.691-.572-1.25-1.278-1.25H8.944c-.706 0-1.277.559-1.277 1.25zm20.077 31.623a1.297 1.297 0 0 0-1.807-.014c-1.879 1.809-4.247 3.847-5.186 4.467-.222-.492-.474-1.314-.626-1.814-.52-1.683-.926-3.012-2.236-3.012-1.12 0-1.625 1.002-2.389 2.518-.374.742-1.15 2.288-1.432 2.482-.277-.028-.751-.344-1.273-.82 1.408-1.779 2.538-3.838 2.538-5.43 0-2.732-2.35-3.75-3.833-3.75-1.507 0-3.833 2.147-3.833 5 0 1.265.716 2.827 1.732 4.198-.405.395-.817.754-1.22 1.052A1.233 1.233 0 0 0 7.92 52c.252.328.637.5 1.023.5.267 0 .537-.082.767-.25.441-.324.915-.73 1.392-1.194 1 .872 2.064 1.444 2.952 1.444 1.727 0 2.753-1.923 3.644-3.691.59 1.909 1.158 3.69 2.745 3.69.427 0 1.722 0 7.285-5.358a1.23 1.23 0 0 0 .015-1.768zm10.59-9.123c0-.691-.572-1.25-1.279-1.25H19.167c-.707 0-1.278.559-1.278 1.25 0 .69.571 1.25 1.278 1.25h17.888c.707 0 1.278-.56 1.278-1.25zm0-7.5c0-.691-.572-1.25-1.278-1.25H8.944c-.706 0-1.277.559-1.277 1.25 0 .69.571 1.25 1.277 1.25h28.111c.707 0 1.278-.56 1.278-1.25zm0-7.5c0-.691-.572-1.25-1.278-1.25H8.944c-.706 0-1.277.559-1.277 1.25 0 .69.571 1.25 1.277 1.25h28.111c.707 0 1.278-.56 1.278-1.25zm3.304-8.75l-8.416-8.232V10c0 1.378 1.146 2.5 2.556 2.5zm-28.86 31.25c0 .797-.689 2.142-1.667 3.467-.52-.774-.889-1.577-.889-2.217 0-1.525 1.143-2.417 1.278-2.5.212 0 1.278.06 1.278 1.25z"/></g></g></svg>