<svg xmlns="http://www.w3.org/2000/svg" width="31" height="40" viewBox="0 0 31 40"><g><g><path fill="#518a32" d="M30.991 32.215a7.268 7.268 0 0 1-.025 1.047l-.008.079c-.011.11-.025.221-.042.33l-.011.07c-.014.089-.03.177-.047.264l-.02.094c-.02.099-.042.197-.067.295l-.007.027c-.027.106-.057.211-.09.315l-.027.087-.081.24-.028.078c-.038.101-.077.201-.119.3l-.024.055a7.652 7.652 0 0 1-.11.243l-.041.086c-.041.082-.082.164-.126.245l-.023.043a7.95 7.95 0 0 1-.159.276l-.046.074a6.428 6.428 0 0 1-.182.281c-.06.088-.12.174-.184.258l-.03.038a6.997 6.997 0 0 1-.168.215l-.06.073a7.635 7.635 0 0 1-.17.196l-.044.048c-.07.078-.143.154-.217.228l-.06.06a7.378 7.378 0 0 1-.177.168l-.068.062c-.078.07-.158.14-.239.207l-.024.02c-.075.06-.15.12-.228.178l-.077.057a6.64 6.64 0 0 1-.204.145l-.062.043a7.23 7.23 0 0 1-.265.17l-.07.04a7.926 7.926 0 0 1-.215.124l-.084.046c-.09.049-.181.096-.274.14l-.013.007a7.341 7.341 0 0 1-.657.278l-.107.036a6.914 6.914 0 0 1-.22.074c-.046.015-.093.028-.14.042-.065.019-.129.038-.193.055l-.149.037-.193.044-.151.03a8.845 8.845 0 0 1-.199.036l-.15.023c-.069.01-.139.019-.21.027l-.142.016a7.707 7.707 0 0 1-.237.018l-.12.008a7.948 7.948 0 0 1-.725 0l-.129-.009a8.234 8.234 0 0 1-.228-.017c-.053-.005-.106-.012-.158-.018a7.065 7.065 0 0 1-.192-.024l-.174-.028a8.888 8.888 0 0 1-.354-.068 5.776 5.776 0 0 1-.344-.083l-.126-.036c-.07-.02-.14-.04-.21-.063l-.096-.033a7.447 7.447 0 0 1-5.08-7.056c0-4.11 3.337-7.443 7.454-7.443a7.428 7.428 0 0 1 3.988 1.156l.08.051c.056.036.11.072.165.11l.053.038c.1.07.197.142.292.216l.081.063.146.12.079.068c.08.07.158.14.235.213l.087.082.125.125.092.096a8.225 8.225 0 0 1 .382.437c.034.041.067.084.1.126a8.382 8.382 0 0 1 .241.33l.08.119c.034.051.067.104.1.156l.066.105c.048.08.094.161.14.243l.058.109.095.185c.016.033.033.065.048.098.042.088.083.177.122.268l.04.095c.029.071.057.142.084.215.011.03.024.06.035.092.034.096.067.193.098.29l.024.08a7.255 7.255 0 0 1 .164.642l.012.06a7.559 7.559 0 0 1 .103.687l.004.035c.01.1.017.202.023.304l.004.088zm-10.849-1.344l2.517 2.555c.052.054.11.112.172.155.09.06.186.127.287.16.112.036.228-.057.343.093h.009c.122 0 .244-.057.363-.097v-.039a1.1 1.1 0 0 0 .435-.273l2.57-2.55a1.126 1.126 0 0 0 0-1.595 1.146 1.146 0 0 0-1.61-.005l-.68.647V27.67a1.128 1.128 0 1 0-2.26 0v2.21l-.561-.595a1.1 1.1 0 0 0-1.573-.01 1.13 1.13 0 0 0-.012 1.597zm7.093 5.144c0-.623-.506-1.128-1.13-1.128h-5.12a1.129 1.129 0 1 0 0 2.256h5.12c.624 0 1.13-.505 1.13-1.128zm-.883-28.647h-7.074V.561zm-9.573 32.15l-15.629-.05C.528 39.466 0 38.962 0 38.34V1.128C0 .505.555 0 1.18 0h15.839v8.496c0 .623.555 1.128 1.179 1.128h8.911v13.932c-1.054-.45-2.312-.7-3.589-.7-5.357 0-9.69 4.352-9.69 9.7a9.653 9.653 0 0 0 2.95 6.963zM4.794 15.113c0 .623.505 1.128 1.13 1.128h14.91a1.129 1.129 0 1 0 0-2.255H5.924c-.625 0-1.13.504-1.13 1.127zm1.13 5.79h14.91a1.129 1.129 0 1 0 0-2.256H5.924a1.129 1.129 0 1 0 0 2.256z"/></g></g></svg>