<svg xmlns="http://www.w3.org/2000/svg" width="60" height="60" viewBox="0 0 60 60"><g><g><path fill="#d12c2c" d="M13.363 52.489c-.476 0-.952-.166-1.333-.497C11.54 51.565 0 41.41 0 30.882c0-7.277 5.995-13.199 13.364-13.199 7.369 0 13.364 5.922 13.364 13.2 0 10.527-11.54 20.682-12.031 21.109a2.025 2.025 0 0 1-1.333.497zm0-4.749c2.862-2.844 9.331-10.03 9.331-16.857 0-5.083-4.186-9.218-9.33-9.218-5.146 0-9.332 4.135-9.332 9.218 0 6.827 6.47 14.013 9.331 16.857zm19.91-34.54c0-7.278 5.995-13.2 13.364-13.2C54.006 0 60 5.922 60 13.2c0 10.526-11.54 20.682-12.031 21.11a2.028 2.028 0 0 1-1.333.496c-.476 0-.952-.165-1.333-.497-.491-.427-12.032-10.583-12.031-21.109zm4.032 0c0 6.827 6.47 14.013 9.332 16.857 2.861-2.844 9.33-10.03 9.33-16.857 0-5.083-4.185-9.218-9.33-9.218-5.146 0-9.332 4.135-9.332 9.218zm12.069 24.073a1.977 1.977 0 0 1-.692 2.732L15.409 59.716a2.027 2.027 0 0 1-1.036.284 2.021 2.021 0 0 1-1.731-.967 1.977 1.977 0 0 1 .692-2.732L46.607 36.59a2.031 2.031 0 0 1 2.767.683zm-34.047-3.446h-3.432s-.61 1.58-.896 2.066c-.12.204-.427.413-.958.413-.356 0-.673-.128-.941-.381-.27-.255-.413-.567-.413-.903 0-.171.029-.35.085-.529l3-7.559c.11-.279.232-.518.362-.708.148-.22.345-.398.584-.532.246-.137.544-.207.885-.207.345 0 .645.07.892.207.238.134.434.308.582.52.129.185.239.387.328.6l2.864 7.007c.225.534.33.913.33 1.188 0 .333-.135.635-.402.9a1.339 1.339 0 0 1-.972.397c-.219 0-.415-.042-.582-.125-.165-.081-.324-.18-.417-.333-.288-.473-.9-2.021-.899-2.021zm-.835-2.27l-.9-2.432-.883 2.432zM47.257 18.42h-3c-.545 0-.955-.138-1.218-.41-.258-.268-.39-.669-.39-1.191V9.534c0-.534.136-.94.403-1.203.267-.264.673-.398 1.206-.398h3.18c.489 0 .92.03 1.286.091.393.066.751.195 1.066.383.268.158.51.36.716.603.208.244.369.518.478.814.11.296.166.613.166.94 0 .85-.342 1.552-.997 2.064 1.185.64 1.459 1.643 1.459 2.431 0 .617-.164 1.182-.486 1.68-.323.499-.766.873-1.316 1.111-.337.14-.719.236-1.14.291-.404.053-.879.08-1.413.08zm-1.812-6.509h1.685c.48 0 .87-.398.87-.872a.864.864 0 0 0-.87-.86h-1.685zm0 4.238h2.283c.568 0 1.028-.458 1.028-1.018s-.46-1.015-1.028-1.015h-2.283z"/></g></g></svg>