<svg xmlns="http://www.w3.org/2000/svg" width="24" height="19" viewBox="0 0 24 19"><g><g><path fill="#633" d="M.737 4.297C.245 3.635 0 3.02 0 2.454 0 1.752.185 1.167.556.7c.37-.467.9-.701 1.587-.701h19.714c.58 0 1.082.211 1.507.634.424.423.636.931.636 1.525 0 .711-.219 1.39-.657 2.038a6.385 6.385 0 0 1-1.633 1.66c-3.357 2.349-5.447 3.811-6.268 4.387-.09.063-.28.2-.57.412-.29.211-.53.382-.722.513-.192.13-.425.276-.697.438-.272.162-.529.284-.77.364a2.109 2.109 0 0 1-.67.122h-.026c-.206 0-.43-.04-.67-.122a4.034 4.034 0 0 1-.77-.364 13.785 13.785 0 0 1-.697-.438c-.192-.13-.433-.302-.723-.513a67.22 67.22 0 0 0-.57-.412A664.784 664.784 0 0 0 5.05 7.779a619.446 619.446 0 0 1-2.746-1.923c-.553-.378-1.076-.898-1.566-1.56zM24 6.125v10.717c0 .594-.21 1.102-.63 1.525-.42.424-.924.635-1.513.635H2.143c-.59 0-1.094-.211-1.514-.635A2.086 2.086 0 0 1 0 16.842V6.125c.394.441.845.833 1.354 1.175 3.232 2.213 5.45 3.765 6.656 4.656.509.378.922.673 1.239.884.317.212.739.428 1.265.648.527.22 1.018.33 1.473.33h.028c.455 0 .946-.11 1.472-.33.527-.22.949-.436 1.266-.648.317-.211.73-.506 1.239-.884 1.518-1.107 3.741-2.659 6.67-4.656A7.4 7.4 0 0 0 24 6.125z"/></g></g></svg>