<svg xmlns="http://www.w3.org/2000/svg" width="24" height="24" viewBox="0 0 24 24"><g><g><path fill="#633" d="M24 12c0 6.627-5.373 12-12 12S0 18.627 0 12 5.373 0 12 0s12 5.373 12 12zm-5.31 4.012l-.068-.205c-.158-.472-.68-.964-1.16-1.096l-1.774-.485c-.48-.13-1.166.046-1.519.399l-.641.641a6.814 6.814 0 0 1-4.792-4.793l.642-.641c.351-.352.527-1.037.397-1.52L9.29 6.54c-.13-.48-.625-1.002-1.097-1.16l-.202-.068c-.473-.158-1.148.002-1.5.355l-.96.96c-.172.17-.282.659-.282.66a11.353 11.353 0 0 0 3.32 8.145 11.34 11.34 0 0 0 8.116 3.317c.016 0 .519-.107.69-.278l.96-.961c.352-.35.51-1.025.354-1.497z"/></g></g></svg>