<svg xmlns="http://www.w3.org/2000/svg" width="42" height="60" viewBox="0 0 42 60"><g><g><path fill="#518a32" d="M11.929 7.51V5.28c0-.486.4-.883.894-.883h1.435c1.507 0 2.881-.904 3.502-2.303A3.54 3.54 0 0 1 21 0a3.54 3.54 0 0 1 3.24 2.093c.62 1.4 1.995 2.304 3.501 2.304h1.436a.89.89 0 0 1 .893.883v2.23a.89.89 0 0 1-.893.884H12.822a.89.89 0 0 1-.893-.884zM8.796 45.03h4.185v4.135H8.796zm0-24.87h4.185v4.135H8.796zM42 13.363v40.892C42 57.423 39.392 60 36.187 60H5.813C2.607 60 0 57.423 0 54.255V13.363c0-3.167 2.607-5.744 5.813-5.744h3.219c.058 2.018 1.734 3.643 3.79 3.643h16.355c2.056 0 3.732-1.625 3.791-3.643h3.219c3.205 0 5.813 2.577 5.813 5.744zm-23.821 8.839c0 .792.65 1.434 1.45 1.434h13.102c.802 0 1.451-.642 1.451-1.434 0-.792-.65-1.434-1.45-1.434H19.63c-.802 0-1.451.642-1.451 1.434zm0 12.578c0 .792.65 1.434 1.45 1.434h11.644c.801 0 1.451-.642 1.451-1.434 0-.792-.65-1.434-1.451-1.434H19.63c-.802 0-1.451.642-1.451 1.434zm-2.295 8.815c0-.793-.65-1.435-1.452-1.435H7.345c-.802 0-1.452.642-1.452 1.435v7.003c0 .793.65 1.435 1.452 1.435h7.087c.802 0 1.452-.642 1.452-1.435zm0-12.436c0-.792-.65-1.434-1.452-1.434H7.345c-.802 0-1.452.642-1.452 1.434v7.004c0 .792.65 1.434 1.452 1.434h7.087c.802 0 1.452-.642 1.452-1.434zm0-12.435c0-.791-.65-1.434-1.452-1.434H7.345c-.802 0-1.452.643-1.452 1.434v7.004c0 .792.65 1.435 1.452 1.435h7.087c.802 0 1.452-.643 1.452-1.435zM34.91 47.358c0-.792-.65-1.434-1.452-1.434H19.63c-.802 0-1.451.642-1.451 1.434 0 .792.65 1.434 1.45 1.434h13.83c.801 0 1.45-.642 1.45-1.434zM8.796 32.594h4.185v4.135H8.796z"/></g></g></svg>