<svg xmlns="http://www.w3.org/2000/svg" width="49" height="60" viewBox="0 0 49 60"><g><g><path fill="#d12c2c" d="M0 33.75V7.5s1.48.212 3.796.212C8.926 7.712 18.157 6.673 24.5 0c6.343 6.673 15.575 7.712 20.702 7.712C47.52 7.712 49 7.5 49 7.5v26.25C49 49.219 24.5 60 24.5 60S0 49.219 0 33.75zm3.745-22.288V33.75c0 9.9 13.802 18.707 20.755 22.112C31.448 52.446 45.26 43.618 45.26 33.75V11.462h-.053c-4.936 0-13.674-.898-20.704-6.41-7.03 5.512-15.77 6.41-20.704 6.41h-.053zm19.67 31.097L12.18 34.575l2.168-3.056 8.116 5.767L35.592 17.93l3.097 2.108z"/></g></g></svg>