<svg xmlns="http://www.w3.org/2000/svg" width="70" height="43" viewBox="0 0 70 43"><g><g><path fill="#518a32" d="M26.893 36.834c0 3.405-2.761 6.166-6.156 6.166a6.167 6.167 0 0 1-6.167-6.166 6.163 6.163 0 0 1 12.323 0zm-3.078 0a3.088 3.088 0 0 0-3.078-3.077 3.09 3.09 0 0 0-3.089 3.077 3.092 3.092 0 0 0 3.089 3.088 3.09 3.09 0 0 0 3.078-3.088zm-11.126-1.17H1.627a.99.99 0 0 1-.99-.99V31.67a.99.99 0 0 1 .99-.99h13.801c-1.45 1.25-2.45 3.001-2.739 4.982zm46.423 1.17A6.159 6.159 0 0 1 52.955 43c-3.395 0-6.156-2.761-6.156-6.166a6.156 6.156 0 1 1 12.313 0zm-3.078 0a3.081 3.081 0 0 0-3.079-3.077 3.083 3.083 0 0 0 0 6.165 3.083 3.083 0 0 0 3.079-3.088zM70 31.668v3.009c0 .544-.435.99-.99.99h-8.008c-.574-3.93-3.959-6.968-8.047-6.968-4.088 0-7.473 3.039-8.037 6.967H28.774a8.139 8.139 0 0 0-2.732-4.987h15.293V2.375c0-1.099.89-1.98 1.98-1.98h9.343a7.91 7.91 0 0 1 6.563 3.484l6.028 8.927a7.924 7.924 0 0 1 1.356 4.423v13.45h2.405c.554 0 .99.445.99.99zM59.963 13.034l-4.82-6.849a.99.99 0 0 0-.812-.416h-7.513a.993.993 0 0 0-.99.99v6.839c0 .554.446.99.99.99h12.334c.801 0 1.276-.901.811-1.554zm-23.34 15.665H1.98A1.98 1.98 0 0 1 0 26.72v-8.907a1.98 1.98 0 0 1 1.98-1.979h34.643a1.98 1.98 0 0 1 1.98 1.98v8.906a1.98 1.98 0 0 1-1.98 1.98zM15.837 12.865H1.98A1.98 1.98 0 0 1 0 10.886V1.979A1.98 1.98 0 0 1 1.98 0h13.857a1.98 1.98 0 0 1 1.98 1.98v8.907a1.98 1.98 0 0 1-1.98 1.98zm20.786 0H22.766a1.98 1.98 0 0 1-1.98-1.979V1.979A1.98 1.98 0 0 1 22.766 0h13.857a1.98 1.98 0 0 1 1.98 1.98v8.906a1.98 1.98 0 0 1-1.98 1.98z"/></g></g></svg>